<mxfile host="app.diagrams.net" modified="2024-05-21T16:48:48.898Z" agent="Mozilla/5.0 (Windows NT 10.0; Win64; x64) AppleWebKit/537.36 (KHTML, like Gecko) Chrome/124.0.0.0 Safari/537.36" version="24.4.4" etag="-Gqlz_xY5Y0YyoxSiB67" type="github">
  <diagram name="Page-1" id="I0w_Y1SDjQplal9jRkme">
    <mxGraphModel>
      <root>
        <mxCell id="0" />
        <mxCell id="1" parent="0" />
      </root>
    </mxGraphModel>
  </diagram>
</mxfile>
